<?xml version="1.0" encoding="utf-8"?>
<!-- Generator: Adobe Illustrator 19.2.0, SVG Export Plug-In . SVG Version: 6.00 Build 0)  -->
<svg version="1.1" id="Layer_1" xmlns="http://www.w3.org/2000/svg" xmlns:xlink="http://www.w3.org/1999/xlink" x="0px" y="0px"
	 viewBox="0 0 200 100" style="enable-background:new 0 0 200 100;" xml:space="preserve">
<style type="text/css">
	.st0{fill:#A6CE39;}
	.st1{fill:#FFCB05;}
	.st2{fill:#D7DF23;}
	.st3{fill:#ED145B;}
	.st4{fill:#F36F21;}
	.st5{fill:#FAA61A;}
	.st6{fill:#58595B;}
</style>
<path class="st0" d="M70.5,39.1c-1.9-17.7-13.9-27.7-19.6-25c-5.6,2.8-2.1,8.8,1.9,15.3c4,6.5,1.4,8.8-3.9,14.3
	c-4.3,4.5,2.2,10.1,2.8,18.8c0.1,0.8,0.1,1.5,0.1,2.3c0,13.4-11,24.3-24.6,24.3c-0.5,0-0.9,0-1.4,0c-0.2,0-0.3,0-0.5,0
	c-0.3,0-0.6,0-0.9-0.1c-0.2,0-0.4,0-0.6-0.1c-0.3,0-0.5-0.1-0.8-0.1c-0.2,0-0.4-0.1-0.6-0.1c-0.2,0-0.5-0.1-0.7-0.1
	c-0.2,0-0.4-0.1-0.6-0.1c-0.2-0.1-0.5-0.1-0.7-0.2c-0.3-0.1-0.6-0.2-0.9-0.3c-0.3-0.1-0.6-0.2-0.9-0.3c-0.2-0.1-0.4-0.2-0.6-0.2
	c-4.2-1.6-7.8-4.3-10.5-7.7c4.4,7,11.4,12.3,19.8,14.4c0,0,0,0,0,0s0,0,0,0c2.5,0.6,5.1,1,7.8,1c7.9,0,15.1-2.8,20.7-7.4
	c0,0,0,0,0,0C67.8,79.3,72.3,55.8,70.5,39.1 M47.9,13.8c-2,1.4-9.8,0.6-10.5-4.3c0-4.9,8.1-6.2,10.3-3.7
	C49.9,8.5,49.8,12.5,47.9,13.8"/>
<path class="st1" d="M42.1,22.1c1.4-0.8,1.7-2.9,0.7-4.1c-1-1.3-2.9-2.1-4.2-1.3c-1.3,0.8-1.6,2.8-0.7,4.1
	C38.9,22,40.8,22.9,42.1,22.1"/>
<path class="st1" d="M57.3,86.8c0.1-0.1,0.3-0.2,0.4-0.3c0,0,0,0,0,0c0,0,0,0,0,0c0,0,0,0,0,0l0,0c0.3-0.3,0.6-0.5,0.8-0.8
	c0.1-0.1,0.2-0.2,0.3-0.3c0.2-0.2,0.3-0.4,0.5-0.5c0.1-0.1,0.2-0.3,0.4-0.4c0.1-0.2,0.3-0.3,0.4-0.5c0.1-0.1,0.2-0.3,0.4-0.5
	c0-0.1,0.1-0.1,0.1-0.2l0,0c0.2-0.2,0.4-0.4,0.5-0.7c0-0.1,0.1-0.1,0.1-0.2c0.2-0.4,0.3-0.8,0.5-1.3c4.8-13.4-2.8-23.6-5.2-34.7
	C52.8,28.6,43,24.9,40,27.2c-3,2.3-0.5,6.6-0.6,14.1c-0.1,7.5-21.8,15.7-29,23C4.9,70,6.8,77.1,7.9,80c0,0,0,0,0,0
	c0,0,0,0.1,0.1,0.1c0.6,1,1.3,2,2.1,2.9c0.1,0.1,0.2,0.2,0.3,0.3c0.2,0.2,0.4,0.5,0.6,0.7c0.1,0.1,0.3,0.3,0.4,0.4
	c0.2,0.2,0.4,0.4,0.6,0.6c0.1,0.2,0.3,0.3,0.4,0.5c0.2,0.2,0.4,0.4,0.5,0.5c0.2,0.2,0.4,0.3,0.5,0.5c0.2,0.2,0.3,0.3,0.5,0.5
	c0.2,0.2,0.5,0.4,0.7,0.6c0.1,0.1,0.3,0.2,0.4,0.3c0.4,0.3,0.8,0.6,1.1,0.9c0.1,0.1,0.2,0.1,0.3,0.2c0.3,0.2,0.6,0.4,1,0.7
	c0.1,0.1,0.2,0.2,0.4,0.2c0.3,0.2,0.6,0.4,0.9,0.6c0.1,0.1,0.3,0.1,0.4,0.2c0.3,0.2,0.6,0.4,1,0.5c0.1,0.1,0.2,0.1,0.3,0.2
	c0.4,0.2,0.7,0.4,1.1,0.5c0.1,0,0.2,0.1,0.3,0.1c1.4,0.7,2.8,1.2,4.3,1.7c0,0,0.1,0,0.1,0c0.5,0.1,0.9,0.3,1.4,0.4c0,0,0.1,0,0.1,0
	c0,0,0,0,0,0s0,0,0,0c0,0,0.1,0,0.1,0c0.6,0.1,1.1,0.3,1.7,0.4l0,0c0.3,0.1,0.7,0.1,1,0.2c0.3,0,0.6,0.1,0.9,0.1c0.1,0,0.2,0,0.2,0
	c0.5,0.1,1,0.1,1.6,0.1c0.2,0,0.3,0,0.5,0c0.6,0,1.2,0.1,1.8,0.1c0.5,0,0.9,0,1.4,0c0.2,0,0.3,0,0.5,0c0.3,0,0.6,0,0.9-0.1
	c0.2,0,0.4,0,0.5-0.1c0.3,0,0.6-0.1,0.8-0.1c0.2,0,0.4-0.1,0.6-0.1c0.3,0,0.5-0.1,0.8-0.1c0.2,0,0.4-0.1,0.6-0.1
	c0.3,0,0.5-0.1,0.8-0.2c0.2,0,0.4-0.1,0.5-0.1c0.3-0.1,0.5-0.1,0.8-0.2c0.2,0,0.4-0.1,0.5-0.1c0.2,0,0.4-0.1,0.6-0.2c0,0,0,0,0,0
	c4.2-1.3,8-3.3,11.3-6c0,0,0,0,0,0c0.3-0.2,0.6-0.5,1-0.7C57.2,86.9,57.3,86.8,57.3,86.8"/>
<path class="st2" d="M57.1,87c0.1-0.1,0.2-0.2,0.3-0.2c0.1-0.1,0.3-0.2,0.4-0.4c0,0,0,0,0,0c1.3-1.1,2.4-2.4,3.5-3.9
	c6-14.1-2.1-24.7-4.6-36.1C56,43,55,40.1,54,37.7c-1,1.8-2.7,3.6-5,5.9c-4.3,4.5,2.2,10.1,2.8,18.8c0.1,0.8,0.1,1.5,0.1,2.3
	c0,13.4-11,24.3-24.6,24.3c-0.5,0-0.9,0-1.4,0c-0.2,0-0.3,0-0.5,0c-0.3,0-0.6,0-0.9-0.1c-0.2,0-0.4,0-0.6-0.1
	c-0.3,0-0.5-0.1-0.8-0.1c-0.2,0-0.4-0.1-0.6-0.1c-0.2,0-0.5-0.1-0.7-0.1c-0.2,0-0.4-0.1-0.6-0.1c-0.2-0.1-0.5-0.1-0.7-0.2
	c-0.3-0.1-0.6-0.2-0.9-0.3c-0.3-0.1-0.6-0.2-0.9-0.3c-0.2-0.1-0.4-0.2-0.6-0.2c-4.1-1.6-7.7-4.2-10.4-7.6c0,0,0,0,0,0.1c0,0,0,0,0,0
	c0,0,0,0.1,0.1,0.1c0.6,1,1.3,2,2.1,2.9c0.1,0.1,0.2,0.2,0.3,0.3c0.2,0.2,0.4,0.5,0.6,0.7c0.1,0.1,0.3,0.3,0.4,0.4
	c0.2,0.2,0.4,0.4,0.6,0.6c0.1,0.2,0.3,0.3,0.4,0.5c0.2,0.2,0.4,0.4,0.5,0.5c0.2,0.2,0.4,0.3,0.5,0.5c0.2,0.2,0.3,0.3,0.5,0.5
	c0.2,0.2,0.5,0.4,0.7,0.6c0.1,0.1,0.3,0.2,0.4,0.3c0,0,0.1,0,0.1,0.1c0.4,0.3,0.7,0.6,1.1,0.8c0.1,0.1,0.2,0.1,0.3,0.2
	c0.3,0.2,0.6,0.4,1,0.7c0.1,0.1,0.2,0.2,0.4,0.2c0.3,0.2,0.6,0.4,0.9,0.6c0.1,0.1,0.3,0.1,0.4,0.2c0.3,0.2,0.6,0.4,1,0.5
	c0.1,0.1,0.2,0.1,0.3,0.2c0.4,0.2,0.7,0.4,1.1,0.5c0.1,0,0.2,0.1,0.2,0.1c0.3,0.2,0.7,0.3,1,0.5c0,0,0.1,0,0.1,0
	c0.7,0.3,1.3,0.5,2,0.8c0.1,0,0.1,0,0.2,0.1c0.3,0.1,0.6,0.2,1,0.3c0,0,0,0,0,0c0,0,0,0,0.1,0c0.5,0.1,0.9,0.3,1.4,0.4
	c0,0,0.1,0,0.1,0c0,0,0,0,0,0s0,0,0,0c0,0,0.1,0,0.1,0c0.6,0.1,1.1,0.3,1.7,0.4l0,0c0.3,0.1,0.7,0.1,1,0.2c0.3,0,0.6,0.1,0.9,0.1
	c0.1,0,0.2,0,0.2,0c0.5,0.1,1,0.1,1.6,0.1c0.2,0,0.3,0,0.5,0c0.6,0,1.2,0.1,1.8,0.1c0.5,0,0.9,0,1.4,0c0.2,0,0.3,0,0.5,0
	c0.3,0,0.6,0,0.9-0.1c0.2,0,0.4,0,0.5-0.1c0.3,0,0.6-0.1,0.8-0.1c0.2,0,0.4-0.1,0.6-0.1c0.3,0,0.5-0.1,0.8-0.1
	c0.2,0,0.4-0.1,0.6-0.1c0.3,0,0.5-0.1,0.8-0.2c0.2,0,0.4-0.1,0.5-0.1c0.3-0.1,0.5-0.1,0.8-0.2c0.2,0,0.4-0.1,0.5-0.1
	c0.2,0,0.4-0.1,0.6-0.2c0,0,0,0,0,0c0.3-0.1,0.5-0.2,0.8-0.2c0,0,0,0,0,0c0.2-0.1,0.5-0.2,0.7-0.2c0,0,0,0,0,0c1-0.4,2-0.8,3-1.2
	c0,0,0.1,0,0.1,0c0.2-0.1,0.4-0.2,0.6-0.3c0,0,0.1,0,0.1-0.1c0.2-0.1,0.4-0.2,0.5-0.3c0.1,0,0.1-0.1,0.2-0.1
	c0.2-0.1,0.4-0.2,0.6-0.3c0,0,0.1,0,0.1-0.1c0.4-0.3,0.9-0.5,1.3-0.8c0,0,0.1-0.1,0.1-0.1c0.2-0.1,0.3-0.2,0.5-0.3
	c0.1,0,0.1-0.1,0.2-0.1c0.1-0.1,0.3-0.2,0.4-0.3c0.1-0.1,0.2-0.1,0.2-0.2c0.1-0.1,0.3-0.2,0.4-0.3c0.1-0.1,0.2-0.1,0.2-0.2
	c0.1-0.1,0.3-0.2,0.4-0.3c0.1,0,0.1-0.1,0.2-0.1c0.2-0.2,0.4-0.3,0.6-0.5c0,0,0,0,0,0c0.2-0.1,0.4-0.3,0.6-0.5
	C56.9,87.1,57,87.1,57.1,87"/>
<path class="st3" d="M25.7,39.9c2.2-0.4,4-2.6,3.9-4.8c-0.1-2.2-1.8-3.4-4.1-3c-2.3,0.4-4,2.5-3.9,4.8
	C21.7,39.2,23.5,40.3,25.7,39.9"/>
<path class="st3" d="M57.5,86.6c0.2-0.2,0.4-0.4,0.6-0.5c0.2-0.2,0.3-0.3,0.5-0.5c0.1-0.1,0.2-0.2,0.3-0.3c0.2-0.2,0.3-0.4,0.5-0.5
	c0.1-0.1,0.2-0.3,0.4-0.4c0.1-0.2,0.3-0.3,0.4-0.5c0.1-0.1,0.2-0.3,0.4-0.5c0-0.1,0.1-0.1,0.1-0.2c-3.3,0.8-6.4,1-9.2,0.9
	c-0.7,0-1.4-0.1-2.1-0.2c0,0,0,0-0.1,0c-0.2,0-0.5-0.1-0.7-0.1c0,0,0,0,0,0c-0.7-0.1-1.4-0.2-2-0.4l0,0c-6.2-1.5-10.9-4.9-14.3-8.4
	c0,0,0,0,0,0c-0.5-0.5-0.9-1-1.3-1.5c0,0,0,0,0-0.1c-0.1-0.1-0.2-0.2-0.3-0.3c0,0,0,0,0,0c-0.3-0.4-0.6-0.7-0.8-1c0,0,0-0.1-0.1-0.1
	c-0.1-0.1-0.2-0.2-0.2-0.3c0,0,0,0-0.1-0.1c-0.2-0.2-0.3-0.4-0.5-0.6c0,0,0,0,0,0c-0.1-0.1-0.1-0.2-0.2-0.3c0,0-0.1-0.1-0.1-0.1
	c-0.1-0.1-0.1-0.2-0.2-0.3c0,0-0.1-0.1-0.1-0.1c-0.1-0.1-0.2-0.3-0.3-0.4c0-0.1-0.1-0.1-0.1-0.2c0-0.1-0.1-0.1-0.1-0.2
	c0-0.1-0.1-0.1-0.1-0.2c0-0.1-0.1-0.1-0.1-0.2c0-0.1-0.1-0.1-0.1-0.2c-0.1-0.1-0.1-0.2-0.1-0.2c0-0.1-0.1-0.2-0.1-0.2
	c0-0.1-0.1-0.1-0.1-0.2c0-0.1-0.1-0.1-0.1-0.2c0,0-0.1-0.1-0.1-0.1c0-0.1-0.1-0.2-0.1-0.2c0,0,0-0.1-0.1-0.1
	c-0.1-0.1-0.1-0.2-0.2-0.3c0,0,0-0.1-0.1-0.1c0-0.1-0.1-0.1-0.1-0.2c0,0,0-0.1,0-0.1c0-0.1-0.1-0.2-0.1-0.3c0,0,0,0,0,0
	c0-0.1-0.1-0.2-0.1-0.3c0,0,0,0,0-0.1c0-0.1-0.1-0.1-0.1-0.2c0,0,0,0,0-0.1c0,0,0,0,0,0l0,0c-1.4-2.8-2.2-6.5-0.8-14.6
	c0.8-4.7,0.5-8.7-3.3-10.6c-4.4-2.2-10.3,1.3-15.2,10.2c-4.4,8-3.1,17.6-2.8,19.2c3.2,14.3,16.1,25,31.6,25c0.4,0,0.7,0,1.1,0
	c0.1,0,0.1,0,0.2,0c0.1,0,0.1,0,0.2,0c0.2,0,0.3,0,0.5,0c0,0,0.1,0,0.1,0c0.2,0,0.3,0,0.5,0c0.1,0,0.2,0,0.4,0c0.2,0,0.4,0,0.5-0.1
	c0,0,0,0,0,0c0.1,0,0.2,0,0.3,0c0.2,0,0.3,0,0.5-0.1c0.2,0,0.4-0.1,0.6-0.1c0.3,0,0.5-0.1,0.8-0.1c0.2,0,0.4-0.1,0.6-0.1
	c0.3,0,0.5-0.1,0.8-0.2c0.2,0,0.4-0.1,0.5-0.1c0.3-0.1,0.5-0.1,0.8-0.2c0.2,0,0.4-0.1,0.5-0.1c0.2,0,0.4-0.1,0.6-0.2c0,0,0,0,0,0
	c4.2-1.3,8-3.3,11.3-6c0,0,0,0,0,0c0.4-0.3,0.8-0.6,1.2-0.9C57.4,86.7,57.5,86.7,57.5,86.6"/>
<path class="st4" d="M57.3,86.8c0.1-0.1,0.2-0.2,0.4-0.3c0,0,0.1-0.1,0.1-0.1c0.3-0.3,0.6-0.5,0.8-0.8c0.1-0.1,0.2-0.2,0.3-0.3
	c0.2-0.2,0.3-0.4,0.5-0.5c0.1-0.1,0.2-0.3,0.4-0.4c0.1-0.2,0.3-0.3,0.4-0.5c0.1-0.1,0.2-0.3,0.4-0.5c0-0.1,0.1-0.1,0.1-0.2
	c-3.3,0.8-6.4,1-9.2,0.9c-0.7,0-1.4-0.1-2.1-0.2c0,0,0,0-0.1,0c-0.2,0-0.5-0.1-0.7-0.1c0,0,0,0,0,0c-0.7-0.1-1.4-0.2-2-0.4l0,0
	c-6.2-1.5-10.9-4.9-14.3-8.4c0,0,0,0,0,0c-0.5-0.5-0.9-1-1.3-1.5c0,0,0,0,0-0.1c-0.1-0.1-0.2-0.2-0.3-0.3c0,0,0,0,0,0
	c-0.3-0.4-0.6-0.7-0.8-1c0,0,0-0.1-0.1-0.1c-0.1-0.1-0.2-0.2-0.2-0.3c0,0,0,0-0.1-0.1c-0.2-0.2-0.3-0.4-0.5-0.6c0,0,0,0,0,0
	c-0.1-0.1-0.1-0.2-0.2-0.3c0,0-0.1-0.1-0.1-0.1c-0.1-0.1-0.1-0.2-0.2-0.3c0,0-0.1-0.1-0.1-0.1c-0.1-0.1-0.2-0.3-0.3-0.4
	c0-0.1-0.1-0.1-0.1-0.2c0-0.1-0.1-0.1-0.1-0.2c0-0.1-0.1-0.1-0.1-0.2c0-0.1-0.1-0.1-0.1-0.2c0-0.1-0.1-0.1-0.1-0.2
	c-0.1-0.1-0.1-0.2-0.1-0.2c0-0.1-0.1-0.2-0.1-0.2c0-0.1-0.1-0.1-0.1-0.2c0-0.1-0.1-0.1-0.1-0.2c0,0-0.1-0.1-0.1-0.1
	c0-0.1-0.1-0.2-0.1-0.2c0,0,0-0.1-0.1-0.1c-0.1-0.1-0.1-0.2-0.2-0.3c0,0,0-0.1-0.1-0.1c0-0.1-0.1-0.1-0.1-0.2c0,0,0-0.1,0-0.1
	c0-0.1-0.1-0.2-0.1-0.3c0,0,0,0,0,0c0-0.1-0.1-0.2-0.1-0.3c0,0,0,0,0-0.1c0-0.1-0.1-0.1-0.1-0.2c0,0,0,0,0-0.1c0,0,0,0,0,0l0,0
	c-1.2-2.4-1.9-5.4-1.3-11.1c-5.5,3.3-11.1,6.5-14.1,9.6C4.9,70,6.8,77.1,7.9,80c0,0,0,0,0,0c0,0,0,0.1,0.1,0.1c0.6,1,1.3,2,2.1,2.9
	c0.1,0.1,0.2,0.2,0.3,0.3c0.2,0.2,0.4,0.5,0.6,0.7c0.1,0.1,0.3,0.3,0.4,0.4c0.2,0.2,0.4,0.4,0.6,0.6c0.1,0.2,0.3,0.3,0.4,0.5
	c0.2,0.2,0.4,0.4,0.5,0.5c0.2,0.2,0.4,0.3,0.5,0.5c0.2,0.2,0.3,0.3,0.5,0.5c0.2,0.2,0.5,0.4,0.7,0.6c0.1,0.1,0.3,0.2,0.4,0.3
	c0,0,0,0,0,0c0.4,0.3,0.8,0.6,1.1,0.9c0.1,0.1,0.2,0.1,0.3,0.2c0.3,0.2,0.6,0.4,1,0.7c0.1,0.1,0.2,0.2,0.4,0.2
	c0.3,0.2,0.6,0.4,0.9,0.6c0.1,0.1,0.3,0.1,0.4,0.2c0.3,0.2,0.6,0.4,1,0.5c0.1,0.1,0.2,0.1,0.3,0.2c0.4,0.2,0.7,0.4,1.1,0.5
	c0.1,0,0.2,0.1,0.3,0.1c1.4,0.7,2.8,1.2,4.3,1.7c0,0,0.1,0,0.1,0c0.5,0.1,0.9,0.3,1.4,0.4c0,0,0.1,0,0.1,0c0,0,0,0,0,0s0,0,0,0
	c0,0,0.1,0,0.1,0c0.6,0.1,1.1,0.3,1.7,0.4l0,0c0.3,0.1,0.7,0.1,1,0.2c0.3,0,0.6,0.1,0.9,0.1c0.1,0,0.2,0,0.2,0
	c0.5,0.1,1,0.1,1.6,0.1c0.2,0,0.3,0,0.5,0c0.6,0,1.2,0.1,1.8,0.1c0.4,0,0.7,0,1.1,0c0.1,0,0.2,0,0.4,0c0.2,0,0.3,0,0.5,0
	c0,0,0.1,0,0.1,0c0.2,0,0.3,0,0.5,0c0.1,0,0.3,0,0.4,0c0.2,0,0.4,0,0.5-0.1c0,0,0,0,0,0c0.1,0,0.2,0,0.3,0c0.2,0,0.3,0,0.5-0.1
	c0.2,0,0.4-0.1,0.6-0.1c0.3,0,0.5-0.1,0.8-0.1c0.2,0,0.4-0.1,0.6-0.1c0.3,0,0.5-0.1,0.8-0.2c0.2,0,0.4-0.1,0.5-0.1
	c0.3-0.1,0.5-0.1,0.8-0.2c0.2,0,0.4-0.1,0.5-0.1c0.2,0,0.4-0.1,0.6-0.2c0,0,0,0,0,0c4.2-1.3,8-3.3,11.3-6c0,0,0,0,0,0
	c0.2-0.2,0.4-0.3,0.6-0.5c0.1-0.1,0.2-0.1,0.3-0.2c0,0,0,0,0.1-0.1C57.2,86.9,57.3,86.8,57.3,86.8"/>
<path class="st5" d="M57,87C57.1,87,57.1,87,57,87C57.1,87,57.1,87,57,87c0.2-0.1,0.2-0.2,0.3-0.3c0.1-0.1,0.3-0.2,0.4-0.3
	c0,0,0,0,0.1-0.1c1.1-0.9,2-2,3-3.2c-3.3,0.8-6.4,1-9.2,0.9c-0.7,0-1.4-0.1-2.1-0.2c0,0,0,0-0.1,0c-0.2,0-0.5-0.1-0.7-0.1
	c0,0,0,0,0,0c-0.7-0.1-1.4-0.2-2-0.4l0,0c-0.9-0.2-1.8-0.5-2.6-0.8c-4.4,4.1-10.3,6.5-16.8,6.5c-0.5,0-0.9,0-1.4,0
	c-0.2,0-0.3,0-0.5,0c-0.3,0-0.6,0-0.9-0.1c-0.2,0-0.4,0-0.6-0.1c-0.3,0-0.5-0.1-0.8-0.1c-0.2,0-0.4-0.1-0.6-0.1
	c-0.2,0-0.5-0.1-0.7-0.1c-0.2,0-0.4-0.1-0.6-0.1c-0.2-0.1-0.5-0.1-0.7-0.2c-0.3-0.1-0.6-0.2-0.9-0.3c-0.3-0.1-0.6-0.2-0.9-0.3
	c-0.2-0.1-0.4-0.2-0.6-0.2c-4.1-1.6-7.7-4.2-10.4-7.6c0,0,0,0,0,0.1c0,0,0,0,0,0c0,0,0,0.1,0.1,0.1c0.6,1,1.3,2,2.1,2.9
	c0.1,0.1,0.2,0.2,0.3,0.3c0.2,0.2,0.4,0.5,0.6,0.7c0.1,0.1,0.3,0.3,0.4,0.4c0.2,0.2,0.4,0.4,0.6,0.6c0.1,0.2,0.3,0.3,0.4,0.5
	c0.2,0.2,0.4,0.4,0.5,0.5c0.2,0.2,0.4,0.3,0.5,0.5c0.2,0.2,0.3,0.3,0.5,0.5c0.2,0.2,0.5,0.4,0.7,0.6c0.1,0.1,0.3,0.2,0.4,0.3
	c0,0,0.1,0,0.1,0.1c0.2,0.1,0.3,0.3,0.5,0.4c0.2,0.1,0.4,0.3,0.5,0.4c0.1,0.1,0.2,0.1,0.3,0.2c0.3,0.2,0.6,0.4,1,0.7
	c0.1,0.1,0.2,0.2,0.4,0.2c0.3,0.2,0.6,0.4,0.9,0.6c0.1,0.1,0.3,0.1,0.4,0.2c0.3,0.2,0.6,0.4,1,0.5c0.1,0.1,0.2,0.1,0.3,0.2
	c0.4,0.2,0.7,0.4,1.1,0.5c0.1,0,0.2,0.1,0.3,0.1c0.3,0.2,0.7,0.3,1,0.5c0,0,0.1,0,0.1,0c0.7,0.3,1.3,0.5,2,0.8c0.1,0,0.1,0,0.2,0.1
	c0.2,0.1,0.3,0.1,0.5,0.2c0.2,0,0.3,0.1,0.5,0.1c0,0,0,0,0,0c0,0,0,0,0.1,0c0.5,0.1,0.9,0.3,1.4,0.4c0,0,0.1,0,0.1,0c0,0,0,0,0,0
	s0,0,0,0c0,0,0.1,0,0.1,0c0.6,0.1,1.1,0.3,1.7,0.4l0,0c0.3,0.1,0.7,0.1,1,0.2c0.3,0,0.6,0.1,0.9,0.1c0.1,0,0.2,0,0.2,0
	c0.5,0.1,1,0.1,1.6,0.1c0.2,0,0.3,0,0.5,0c0.6,0,1.2,0.1,1.8,0.1c0.4,0,0.7,0,1,0c0.1,0,0.2,0,0.4,0c0.2,0,0.3,0,0.5,0
	c0,0,0.1,0,0.1,0c0.1,0,0.3,0,0.4,0c0.1,0,0.3,0,0.4,0c0.2,0,0.4,0,0.5-0.1c0,0,0,0,0,0c0.1,0,0.1,0,0.2,0c0.2,0,0.4,0,0.6-0.1
	c0.2,0,0.4-0.1,0.6-0.1c0.3,0,0.5-0.1,0.8-0.1c0.2,0,0.4-0.1,0.6-0.1c0.3,0,0.5-0.1,0.8-0.2c0.2,0,0.4-0.1,0.5-0.1
	c0.3-0.1,0.5-0.1,0.8-0.2c0.2,0,0.4-0.1,0.5-0.1c0.2,0,0.4-0.1,0.6-0.2c0,0,0,0,0,0c0.3-0.1,0.5-0.2,0.8-0.2c0,0,0,0,0,0
	c0.1,0,0.1,0,0.2-0.1c0.2-0.1,0.4-0.1,0.5-0.2c0,0,0,0,0,0c0.1,0,0.1,0,0.2-0.1c0.9-0.3,1.8-0.7,2.7-1.1c0,0,0.1,0,0.1,0
	c0,0,0.1,0,0.1,0c0.2-0.1,0.4-0.2,0.6-0.3c0,0,0.1,0,0.1-0.1c0.1-0.1,0.2-0.1,0.3-0.2c0.1,0,0.1-0.1,0.2-0.1c0,0,0.1-0.1,0.1-0.1
	c0.2-0.1,0.4-0.2,0.6-0.3c0,0,0.1,0,0.1-0.1c0,0,0,0,0.1,0c0.4-0.2,0.8-0.4,1.1-0.7c0,0,0.1-0.1,0.1-0.1C53,90,53,90,53,90
	c0,0,0.1-0.1,0.1-0.1c0.1-0.1,0.2-0.2,0.3-0.2c0.1,0,0.1-0.1,0.2-0.1c0.1-0.1,0.3-0.2,0.4-0.3c0.1-0.1,0.2-0.1,0.2-0.2c0,0,0,0,0,0
	c0.1-0.1,0.2-0.2,0.3-0.3c0.1-0.1,0.1-0.1,0.2-0.2c0,0,0,0,0,0c0.1-0.1,0.2-0.2,0.4-0.3c0.1,0,0.1-0.1,0.2-0.1
	c0.2-0.2,0.4-0.3,0.6-0.5c0,0,0,0,0,0c0.2-0.1,0.4-0.3,0.6-0.5C56.9,87.1,57,87.1,57,87"/>
<path class="st6" d="M178.8,66.2c-7.1,0-10.8-5.8-10.8-11.5c0-10.8,8.3-11.6,10.8-11.6c6.7,0,10.9,4.5,10.9,11.6
	C189.7,61,184.7,66.2,178.8,66.2 M188.1,68.7c4.4-3,7.2-8.3,7.2-13.9c0-4.6-1.2-8.2-3.6-11.3l3.4-3.7l-4.2-3.7l-3.2,4
	c-2.7-1.7-5.9-2.6-9-2.6c-4.5,0-8.7,1.6-11.6,4.6c-3.2,3.1-4.8,7.6-4.8,12.8c0,4.7,1.6,9,4.4,12.2c3,3.3,7.2,5.1,12,5.1
	c5.1,0,11.1,2.3,11.1,8.7c0,8.1-8.5,8.7-11.1,8.7c-5,0-10.9-2.3-10.9-8.7v-1.2h-5.6v1.2c0,8.6,6.7,14.4,16.6,14.4
	c5,0,9.2-1.3,12.1-3.8c3-2.6,4.6-6.2,4.6-10.6C195.5,75.3,192.9,71.2,188.1,68.7"/>
<path class="st6" d="M133.9,74.1c-4.7,0-8.7-1.5-11.5-4.3c-2.8-2.8-4.3-6.8-4.3-11.5V39h5.6v19.2c0,6.5,3.7,10.2,10.2,10.2l0.2,0
	c5.9-0.1,10.2-4.6,10.2-10.8V39h5.6v34.6h-5.6V70C141.7,72.5,138.1,74,133.9,74.1L133.9,74.1L133.9,74.1z"/>
<path class="st6" d="M153.9,24.5h5.6v8.6h-5.6V24.5z M153.9,38.9h5.6v34.6h-5.6V38.9z"/>
<rect x="108.4" y="24.5" class="st6" width="5.6" height="49"/>
<path class="st6" d="M104.2,31.5l-1-0.6c-1.7-1-2.8-1.5-4.4-1.5c-2.2,0-5.2,0.7-5.2,7.1v2.4h10.7v5.4H93.7v29.2h-5.6V44.3h-5.7v-5.4
	h5.7v-2.4c0-8.1,3.9-12.6,10.9-12.6c2.6,0,5,0.9,7.2,2.5l0.9,0.7L104.2,31.5z"/>
</svg>
